<svg xmlns="http://www.w3.org/2000/svg" viewBox="0 0 1301.4 100" width="1301.4" height="100" fill="none"><g transform="translate(0,0) scale(0.136426,-0.136426) translate(-16,-719)"><path d="M387.0 697V0H265.0V697ZM635.0 701V663H16.0V701ZM635.0 666V561L625.0 562V575Q625.0 614 601.0 638.0Q577.0 662 538.0 663V666ZM635.0 719V690L513.0 701Q535.0 701 559.5 704.0Q584.0 707 605.0 711.0Q626.0 715 635.0 719ZM268.0 73V0H188.0V10Q188.0 10 194.5 10.0Q201.0 10 201.0 10Q227.0 10 245.5 28.5Q264.0 47 265.0 73ZM384.0 73H387.0Q388.0 47 406.5 28.5Q425.0 10 451.0 10Q451.0 10 457.5 10.0Q464.0 10 464.0 10V0H384.0ZM113.0 666V663Q74.0 662 50.0 638.0Q26.0 614 26.0 575V562L16.0 561V666ZM16.0 719Q26.0 715 46.5 711.0Q67.0 707 92.0 704.0Q117.0 701 138.0 701L16.0 690ZM1416.0 700V0H1294.0V700ZM942.0 700V0H820.0V700ZM1303.0 367V329H932.0V367ZM823.0 73V0H743.0V10Q743.0 10 749.5 10.0Q756.0 10 756.0 10Q782.0 10 800.5 28.5Q819.0 47 820.0 73ZM823.0 627H820.0Q819.0 653 800.5 671.5Q782.0 690 756.0 690Q756.0 690 749.5 690.0Q743.0 690 743.0 690V700H823.0ZM939.0 73H942.0Q943.0 47 961.5 28.5Q980.0 10 1006.0 10Q1006.0 10 1012.0 10.0Q1018.0 10 1019.0 10V0H939.0ZM939.0 627V700H1019.0V690Q1018.0 690 1012.0 690.0Q1006.0 690 1006.0 690Q980.0 690 961.5 671.5Q943.0 653 942.0 627ZM1297.0 73V0H1217.0V10Q1218.0 10 1224.0 10.0Q1230.0 10 1230.0 10Q1256.0 10 1275.0 28.5Q1294.0 47 1294.0 73ZM1297.0 627H1294.0Q1294.0 653 1275.0 671.5Q1256.0 690 1230.0 690Q1230.0 690 1224.0 690.0Q1218.0 690 1217.0 690V700H1297.0ZM1413.0 73H1416.0Q1417.0 47 1435.5 28.5Q1454.0 10 1480.0 10Q1480.0 10 1486.5 10.0Q1493.0 10 1493.0 10V0H1413.0ZM1413.0 627V700H1493.0V690Q1493.0 690 1486.5 690.0Q1480.0 690 1480.0 690Q1454.0 690 1435.5 671.5Q1417.0 653 1416.0 627ZM1821.0 700H1954.0Q1999.0 700 2039.5 689.0Q2080.0 678 2111.0 655.0Q2142.0 632 2159.5 596.5Q2177.0 561 2177.0 512Q2177.0 468 2158.0 425.0Q2139.0 382 2102.0 353.5Q2065.0 325 2011.0 321Q2038.0 312 2062.5 287.5Q2087.0 263 2103.0 239Q2104.0 238 2115.5 220.5Q2127.0 203 2144.0 178.0Q2161.0 153 2179.5 128.0Q2198.0 103 2212.0 86Q2234.0 60 2252.5 43.5Q2271.0 27 2292.0 18.5Q2313.0 10 2340.0 10V0H2257.0Q2205.0 0 2164.5 11.0Q2124.0 22 2094.0 44.0Q2064.0 66 2042.0 99Q2036.0 108 2025.0 126.5Q2014.0 145 2001.0 168.0Q1988.0 191 1975.5 212.5Q1963.0 234 1954.5 251.0Q1946.0 268 1943.0 275Q1927.0 304 1908.0 322.0Q1889.0 340 1867.0 342V352Q1869.0 352 1880.0 351.5Q1891.0 351 1905.0 352Q1932.0 353 1959.5 362.0Q1987.0 371 2009.0 395.5Q2031.0 420 2041.0 464Q2043.0 473 2045.0 487.0Q2047.0 501 2046.0 516Q2043.0 586 2010.0 622.0Q1977.0 658 1926.0 660Q1907.0 661 1886.0 660.5Q1865.0 660 1849.5 660.0Q1834.0 660 1831.0 660Q1831.0 661 1828.5 671.0Q1826.0 681 1823.5 690.5Q1821.0 700 1821.0 700ZM1834.0 700V0H1712.0V700ZM1715.0 73V0H1635.0V10Q1636.0 10 1641.5 10.0Q1647.0 10 1648.0 10Q1674.0 10 1692.5 28.5Q1711.0 47 1712.0 73ZM1715.0 627H1712.0Q1711.0 653 1692.5 671.5Q1674.0 690 1648.0 690Q1647.0 690 1641.5 690.0Q1636.0 690 1635.0 690V700H1715.0ZM1831.0 73H1834.0Q1834.0 47 1853.0 28.5Q1872.0 10 1898.0 10Q1899.0 10 1904.5 10.0Q1910.0 10 1910.0 10V0H1831.0ZM2792.0 714Q2907.0 714 2993.5 669.5Q3080.0 625 3127.0 543.0Q3174.0 461 3174.0 350Q3174.0 239 3127.0 157.0Q3080.0 75 2993.5 30.5Q2907.0 -14 2792.0 -14Q2676.0 -14 2590.0 30.5Q2504.0 75 2457.0 157.0Q2410.0 239 2410.0 350Q2410.0 461 2457.0 543.0Q2504.0 625 2590.0 669.5Q2676.0 714 2792.0 714ZM2792.0 24Q2867.0 24 2922.5 64.0Q2978.0 104 3008.5 177.0Q3039.0 250 3039.0 350Q3039.0 450 3008.5 523.0Q2978.0 596 2922.5 636.0Q2867.0 676 2792.0 676Q2717.0 676 2661.5 636.0Q2606.0 596 2575.5 523.0Q2545.0 450 2545.0 350Q2545.0 250 2575.5 177.0Q2606.0 104 2661.5 64.0Q2717.0 24 2792.0 24ZM3497.0 700V260Q3497.0 189 3521.5 136.0Q3546.0 83 3591.0 54.0Q3636.0 25 3696.0 25Q3760.0 25 3806.0 52.5Q3852.0 80 3877.5 129.5Q3903.0 179 3903.0 247V700H3966.0V251Q3966.0 171 3932.0 111.5Q3898.0 52 3834.5 19.0Q3771.0 -14 3684.0 -14Q3586.0 -14 3516.5 18.5Q3447.0 51 3411.0 110.5Q3375.0 170 3375.0 250V700ZM3378.0 700V640H3375.0Q3375.0 662 3359.5 676.0Q3344.0 690 3322.0 690Q3322.0 690 3314.0 690.0Q3306.0 690 3306.0 690V700ZM3566.0 700V690Q3566.0 690 3558.0 690.0Q3550.0 690 3550.0 690Q3528.0 690 3512.5 676.0Q3497.0 662 3497.0 640H3495.0V700ZM3906.0 700V640H3903.0Q3903.0 662 3887.5 676.0Q3872.0 690 3850.0 690Q3850.0 690 3842.0 690.0Q3834.0 690 3834.0 690V700ZM4035.0 700V690Q4035.0 690 4027.0 690.0Q4019.0 690 4019.0 690Q3997.0 690 3981.5 676.0Q3966.0 662 3966.0 640H3964.0V700ZM4857.0 280V115Q4834.0 85 4789.5 55.0Q4745.0 25 4682.0 5.5Q4619.0 -14 4539.0 -14Q4429.0 -13 4345.0 31.5Q4261.0 76 4214.5 157.5Q4168.0 239 4168.0 351Q4168.0 461 4214.0 543.0Q4260.0 625 4345.0 669.5Q4430.0 714 4543.0 714Q4598.0 714 4647.5 706.0Q4697.0 698 4738.5 684.5Q4780.0 671 4809.0 655L4817.0 494H4808.0Q4790.0 559 4754.5 598.5Q4719.0 638 4670.0 657.0Q4621.0 676 4564.0 676Q4481.0 676 4422.5 635.5Q4364.0 595 4333.0 521.5Q4302.0 448 4302.0 347Q4302.0 249 4331.5 176.5Q4361.0 104 4416.5 64.5Q4472.0 25 4548.0 24Q4588.0 24 4624.0 35.0Q4660.0 46 4689.5 67.5Q4719.0 89 4736.0 119L4737.0 280Q4737.0 325 4686.0 325H4670.0V335H4922.0V325H4907.0Q4855.0 325 4857.0 280ZM5708.0 700V0H5586.0V700ZM5234.0 700V0H5112.0V700ZM5595.0 367V329H5224.0V367ZM5115.0 73V0H5035.0V10Q5035.0 10 5041.5 10.0Q5048.0 10 5048.0 10Q5074.0 10 5092.5 28.5Q5111.0 47 5112.0 73ZM5115.0 627H5112.0Q5111.0 653 5092.5 671.5Q5074.0 690 5048.0 690Q5048.0 690 5041.5 690.0Q5035.0 690 5035.0 690V700H5115.0ZM5231.0 73H5234.0Q5235.0 47 5253.5 28.5Q5272.0 10 5298.0 10Q5298.0 10 5304.0 10.0Q5310.0 10 5311.0 10V0H5231.0ZM5231.0 627V700H5311.0V690Q5310.0 690 5304.0 690.0Q5298.0 690 5298.0 690Q5272.0 690 5253.5 671.5Q5235.0 653 5234.0 627ZM5589.0 73V0H5509.0V10Q5510.0 10 5516.0 10.0Q5522.0 10 5522.0 10Q5548.0 10 5567.0 28.5Q5586.0 47 5586.0 73ZM5589.0 627H5586.0Q5586.0 653 5567.0 671.5Q5548.0 690 5522.0 690Q5522.0 690 5516.0 690.0Q5510.0 690 5509.0 690V700H5589.0ZM5705.0 73H5708.0Q5709.0 47 5727.5 28.5Q5746.0 10 5772.0 10Q5772.0 10 5778.5 10.0Q5785.0 10 5785.0 10V0H5705.0ZM5705.0 627V700H5785.0V690Q5785.0 690 5778.5 690.0Q5772.0 690 5772.0 690Q5746.0 690 5727.5 671.5Q5709.0 653 5708.0 627ZM6145.0 714Q6164.0 714 6190.0 712.0Q6216.0 710 6242.5 706.5Q6269.0 703 6290.0 699.5Q6311.0 696 6319.0 692L6311.0 565H6301.0Q6301.0 616 6264.5 646.0Q6228.0 676 6170.0 676Q6112.0 676 6077.5 646.0Q6043.0 616 6042.0 573Q6040.0 548 6056.5 524.5Q6073.0 501 6101.0 481L6294.0 338Q6335.0 311 6354.0 272.5Q6373.0 234 6371.0 186Q6368.0 94 6304.5 40.0Q6241.0 -14 6132.0 -14Q6095.0 -14 6056.5 -7.5Q6018.0 -1 5986.0 12.5Q5954.0 26 5935.0 45Q5929.0 65 5930.0 93.5Q5931.0 122 5938.0 152.5Q5945.0 183 5955.0 204H5964.0Q5960.0 153 5981.0 111.5Q6002.0 70 6042.5 46.5Q6083.0 23 6138.0 24Q6200.0 26 6237.5 59.0Q6275.0 92 6275.0 144Q6275.0 174 6259.0 198.5Q6243.0 223 6209.0 243L6028.0 380Q5982.0 410 5962.5 452.5Q5943.0 495 5946.0 541Q5949.0 589 5973.0 628.5Q5997.0 668 6040.5 691.0Q6084.0 714 6145.0 714ZM6320.0 704 6319.0 683H6215.0V704ZM6853.0 697V0H6731.0V697ZM7101.0 701V663H6482.0V701ZM7101.0 666V561L7091.0 562V575Q7091.0 614 7067.0 638.0Q7043.0 662 7004.0 663V666ZM7101.0 719V690L6979.0 701Q7001.0 701 7025.5 704.0Q7050.0 707 7071.0 711.0Q7092.0 715 7101.0 719ZM6734.0 73V0H6654.0V10Q6654.0 10 6660.5 10.0Q6667.0 10 6667.0 10Q6693.0 10 6711.5 28.5Q6730.0 47 6731.0 73ZM6850.0 73H6853.0Q6854.0 47 6872.5 28.5Q6891.0 10 6917.0 10Q6917.0 10 6923.5 10.0Q6930.0 10 6930.0 10V0H6850.0ZM6579.0 666V663Q6540.0 662 6516.0 638.0Q6492.0 614 6492.0 575V562L6482.0 561V666ZM6482.0 719Q6492.0 715 6512.5 711.0Q6533.0 707 6558.0 704.0Q6583.0 701 6604.0 701L6482.0 690ZM7599.0 714Q7714.0 714 7800.5 669.5Q7887.0 625 7934.0 543.0Q7981.0 461 7981.0 350Q7981.0 239 7934.0 157.0Q7887.0 75 7800.5 30.5Q7714.0 -14 7599.0 -14Q7483.0 -14 7397.0 30.5Q7311.0 75 7264.0 157.0Q7217.0 239 7217.0 350Q7217.0 461 7264.0 543.0Q7311.0 625 7397.0 669.5Q7483.0 714 7599.0 714ZM7599.0 24Q7674.0 24 7729.5 64.0Q7785.0 104 7815.5 177.0Q7846.0 250 7846.0 350Q7846.0 450 7815.5 523.0Q7785.0 596 7729.5 636.0Q7674.0 676 7599.0 676Q7524.0 676 7468.5 636.0Q7413.0 596 7382.5 523.0Q7352.0 450 7352.0 350Q7352.0 250 7382.5 177.0Q7413.0 104 7468.5 64.0Q7524.0 24 7599.0 24ZM8185.0 715 8804.0 103 8815.0 -14 8196.0 597ZM8189.0 71V0H8106.0V10Q8106.0 10 8115.0 10.0Q8124.0 10 8125.0 10Q8150.0 10 8168.0 28.0Q8186.0 46 8186.0 71ZM8297.0 71Q8297.0 46 8315.0 28.0Q8333.0 10 8358.0 10Q8359.0 10 8368.0 10.0Q8377.0 10 8377.0 10V0H8294.0V71ZM8185.0 715 8296.0 594 8297.0 0H8186.0V590Q8186.0 644 8180.5 679.5Q8175.0 715 8175.0 715ZM8813.0 700V114Q8813.0 78 8816.0 49.0Q8819.0 20 8821.5 3.0Q8824.0 -14 8824.0 -14H8815.0L8704.0 111V700ZM8893.0 700V690Q8893.0 690 8884.0 690.0Q8875.0 690 8875.0 690Q8850.0 690 8832.0 672.5Q8814.0 655 8813.0 629H8810.0V700ZM8623.0 700H8706.0V629H8704.0Q8703.0 655 8685.5 672.5Q8668.0 690 8642.0 690Q8642.0 690 8633.0 690.0Q8624.0 690 8623.0 690ZM9220.0 700V0H9098.0V700ZM9485.0 39 9502.0 0H9217.0V39ZM9447.0 364V326H9217.0V364ZM9494.0 700V661H9217.0V700ZM9555.0 190 9505.0 0H9318.0L9354.0 39Q9405.0 39 9442.0 57.5Q9479.0 76 9504.0 110.5Q9529.0 145 9545.0 190ZM9447.0 328V242H9437.0V253Q9437.0 284 9416.0 305.0Q9395.0 326 9364.0 326V328ZM9447.0 448V362H9364.0V364Q9395.0 365 9416.0 386.0Q9437.0 407 9437.0 438V448ZM9494.0 664V560H9484.0V574Q9484.0 612 9460.0 636.5Q9436.0 661 9396.0 662V664ZM9494.0 718V689L9372.0 700Q9394.0 700 9418.5 703.0Q9443.0 706 9464.0 710.0Q9485.0 714 9494.0 718ZM9101.0 73V0H9021.0V10Q9021.0 10 9027.5 10.0Q9034.0 10 9034.0 10Q9060.0 10 9078.5 28.5Q9097.0 47 9098.0 73ZM9101.0 627H9098.0Q9097.0 653 9078.5 671.5Q9060.0 690 9034.0 690Q9034.0 690 9027.5 690.0Q9021.0 690 9021.0 690V700H9101.0Z" fill="#2A2521"/></g></svg>
