<svg xmlns="http://www.w3.org/2000/svg" viewBox="0 0 100 100" width="100" height="100" fill="none"><!-- Throughstone (TM) — Mark A. Herschberg. Mark may not be altered. --><rect x="16" y="16" width="21.33" height="12" rx="1.5" fill="#DEC9A0"/><rect x="39.33" y="16" width="21.33" height="12" rx="1.5" fill="#DEC9A0"/><rect x="62.66" y="16" width="21.34" height="12" rx="1.5" fill="#DEC9A0"/><rect x="16" y="30" width="10.66" height="12" rx="1.5" fill="#DEC9A0"/><rect x="28.66" y="30" width="21.33" height="12" rx="1.5" fill="#DEC9A0"/><rect x="51.99" y="30" width="21.33" height="12" rx="1.5" fill="#DEC9A0"/><rect x="75.32" y="30" width="8.68" height="12" rx="1.5" fill="#DEC9A0"/><rect x="16" y="58" width="21.33" height="12" rx="1.5" fill="#DEC9A0"/><rect x="39.33" y="58" width="21.33" height="12" rx="1.5" fill="#DEC9A0"/><rect x="62.66" y="58" width="21.34" height="12" rx="1.5" fill="#DEC9A0"/><rect x="16" y="72" width="10.66" height="12" rx="1.5" fill="#DEC9A0"/><rect x="28.66" y="72" width="21.33" height="12" rx="1.5" fill="#DEC9A0"/><rect x="51.99" y="72" width="21.33" height="12" rx="1.5" fill="#DEC9A0"/><rect x="75.32" y="72" width="8.68" height="12" rx="1.5" fill="#DEC9A0"/><rect x="11" y="44" width="78" height="12" rx="2.5" fill="#B07A35"/></svg>
